<mxfile host="app.diagrams.net" agent="Mozilla/5.0 (Windows NT 10.0; Win64; x64) AppleWebKit/537.36 (KHTML, like Gecko) Chrome/129.0.0.0 Safari/537.36" version="24.7.17">
  <diagram name="Página-1" id="GpAlJMf5mHsdhJ18W_gJ">
    <mxGraphModel dx="1050" dy="565" grid="1" gridSize="10" guides="1" tooltips="1" connect="1" arrows="1" fold="1" page="1" pageScale="1" pageWidth="827" pageHeight="1169" math="0" shadow="0">
      <root>
        <mxCell id="0" />
        <mxCell id="1" parent="0" />
        <mxCell id="4OegJ4e9aNNk_LhnHIr_-1" value="Projeto: Automoveis&lt;div&gt;UML - DC (Diagrama de Classes)&lt;/div&gt;" style="text;html=1;align=center;verticalAlign=middle;whiteSpace=wrap;rounded=0;" vertex="1" parent="1">
          <mxGeometry x="314" y="30" width="200" height="50" as="geometry" />
        </mxCell>
        <mxCell id="4OegJ4e9aNNk_LhnHIr_-2" value="Automovel" style="swimlane;fontStyle=1;align=center;verticalAlign=top;childLayout=stackLayout;horizontal=1;startSize=26;horizontalStack=0;resizeParent=1;resizeParentMax=0;resizeLast=0;collapsible=1;marginBottom=0;whiteSpace=wrap;html=1;fillColor=#fff2cc;strokeColor=#d6b656;" vertex="1" parent="1">
          <mxGeometry x="230" y="90" width="210" height="134" as="geometry" />
        </mxCell>
        <mxCell id="4OegJ4e9aNNk_LhnHIr_-3" value="+ modelo: String&lt;div&gt;+ cor: String&lt;br&gt;&lt;/div&gt;&lt;div&gt;+ placa: String&lt;br&gt;&lt;/div&gt;&lt;div&gt;+ valor: float&lt;/div&gt;" style="text;strokeColor=none;fillColor=none;align=left;verticalAlign=top;spacingLeft=4;spacingRight=4;overflow=hidden;rotatable=0;points=[[0,0.5],[1,0.5]];portConstraint=eastwest;whiteSpace=wrap;html=1;" vertex="1" parent="4OegJ4e9aNNk_LhnHIr_-2">
          <mxGeometry y="26" width="210" height="74" as="geometry" />
        </mxCell>
        <mxCell id="4OegJ4e9aNNk_LhnHIr_-4" value="" style="line;strokeWidth=1;fillColor=none;align=left;verticalAlign=middle;spacingTop=-1;spacingLeft=3;spacingRight=3;rotatable=0;labelPosition=right;points=[];portConstraint=eastwest;strokeColor=inherit;" vertex="1" parent="4OegJ4e9aNNk_LhnHIr_-2">
          <mxGeometry y="100" width="210" height="8" as="geometry" />
        </mxCell>
        <mxCell id="4OegJ4e9aNNk_LhnHIr_-5" value="+ calcDesconto(porcentagem): float" style="text;strokeColor=none;fillColor=none;align=left;verticalAlign=top;spacingLeft=4;spacingRight=4;overflow=hidden;rotatable=0;points=[[0,0.5],[1,0.5]];portConstraint=eastwest;whiteSpace=wrap;html=1;" vertex="1" parent="4OegJ4e9aNNk_LhnHIr_-2">
          <mxGeometry y="108" width="210" height="26" as="geometry" />
        </mxCell>
        <mxCell id="4OegJ4e9aNNk_LhnHIr_-6" value="&lt;h1 style=&quot;margin-top: 0px;&quot;&gt;Nome da Classe&lt;/h1&gt;&lt;p&gt;&lt;br&gt;&lt;/p&gt;&lt;p&gt;Atributos&lt;/p&gt;&lt;p&gt;&lt;br&gt;&lt;/p&gt;&lt;p&gt;Métodos&lt;/p&gt;" style="text;html=1;whiteSpace=wrap;overflow=hidden;rounded=0;fontColor=#FF0000;" vertex="1" parent="1">
          <mxGeometry x="450" y="80" width="240" height="163" as="geometry" />
        </mxCell>
        <mxCell id="4OegJ4e9aNNk_LhnHIr_-7" value="Projeto: Pedidos&lt;div&gt;UML - DC (Diagrama de Classes)&lt;/div&gt;" style="text;html=1;align=center;verticalAlign=middle;whiteSpace=wrap;rounded=0;" vertex="1" parent="1">
          <mxGeometry x="125" y="280" width="200" height="50" as="geometry" />
        </mxCell>
        <mxCell id="4OegJ4e9aNNk_LhnHIr_-8" value="Pedido" style="swimlane;fontStyle=1;align=center;verticalAlign=top;childLayout=stackLayout;horizontal=1;startSize=26;horizontalStack=0;resizeParent=1;resizeParentMax=0;resizeLast=0;collapsible=1;marginBottom=0;whiteSpace=wrap;html=1;fillColor=#fff2cc;strokeColor=#d6b656;" vertex="1" parent="1">
          <mxGeometry x="160" y="330" width="130" height="114" as="geometry" />
        </mxCell>
        <mxCell id="4OegJ4e9aNNk_LhnHIr_-9" value="+ produto: String&lt;div&gt;+ preco: float&lt;br&gt;&lt;/div&gt;&lt;div&gt;+ quantidade: int&lt;/div&gt;" style="text;strokeColor=none;fillColor=none;align=left;verticalAlign=top;spacingLeft=4;spacingRight=4;overflow=hidden;rotatable=0;points=[[0,0.5],[1,0.5]];portConstraint=eastwest;whiteSpace=wrap;html=1;" vertex="1" parent="4OegJ4e9aNNk_LhnHIr_-8">
          <mxGeometry y="26" width="130" height="54" as="geometry" />
        </mxCell>
        <mxCell id="4OegJ4e9aNNk_LhnHIr_-10" value="" style="line;strokeWidth=1;fillColor=none;align=left;verticalAlign=middle;spacingTop=-1;spacingLeft=3;spacingRight=3;rotatable=0;labelPosition=right;points=[];portConstraint=eastwest;strokeColor=inherit;" vertex="1" parent="4OegJ4e9aNNk_LhnHIr_-8">
          <mxGeometry y="80" width="130" height="8" as="geometry" />
        </mxCell>
        <mxCell id="4OegJ4e9aNNk_LhnHIr_-11" value="+ calcTotal(): float" style="text;strokeColor=none;fillColor=none;align=left;verticalAlign=top;spacingLeft=4;spacingRight=4;overflow=hidden;rotatable=0;points=[[0,0.5],[1,0.5]];portConstraint=eastwest;whiteSpace=wrap;html=1;" vertex="1" parent="4OegJ4e9aNNk_LhnHIr_-8">
          <mxGeometry y="88" width="130" height="26" as="geometry" />
        </mxCell>
        <mxCell id="4OegJ4e9aNNk_LhnHIr_-12" value="Projeto: Pacientes&lt;div&gt;UML - DC (Diagrama de Classes)&lt;/div&gt;" style="text;html=1;align=center;verticalAlign=middle;whiteSpace=wrap;rounded=0;" vertex="1" parent="1">
          <mxGeometry x="460" y="280" width="200" height="50" as="geometry" />
        </mxCell>
        <mxCell id="4OegJ4e9aNNk_LhnHIr_-13" value="Paciente" style="swimlane;fontStyle=1;align=center;verticalAlign=top;childLayout=stackLayout;horizontal=1;startSize=26;horizontalStack=0;resizeParent=1;resizeParentMax=0;resizeLast=0;collapsible=1;marginBottom=0;whiteSpace=wrap;html=1;fillColor=#fff2cc;strokeColor=#d6b656;" vertex="1" parent="1">
          <mxGeometry x="490" y="330" width="130" height="130" as="geometry" />
        </mxCell>
        <mxCell id="4OegJ4e9aNNk_LhnHIr_-14" value="+ nome: String&lt;div&gt;+ peso: float&lt;br&gt;&lt;/div&gt;&lt;div&gt;+ altura: float&lt;/div&gt;" style="text;strokeColor=none;fillColor=none;align=left;verticalAlign=top;spacingLeft=4;spacingRight=4;overflow=hidden;rotatable=0;points=[[0,0.5],[1,0.5]];portConstraint=eastwest;whiteSpace=wrap;html=1;" vertex="1" parent="4OegJ4e9aNNk_LhnHIr_-13">
          <mxGeometry y="26" width="130" height="54" as="geometry" />
        </mxCell>
        <mxCell id="4OegJ4e9aNNk_LhnHIr_-15" value="" style="line;strokeWidth=1;fillColor=none;align=left;verticalAlign=middle;spacingTop=-1;spacingLeft=3;spacingRight=3;rotatable=0;labelPosition=right;points=[];portConstraint=eastwest;strokeColor=inherit;" vertex="1" parent="4OegJ4e9aNNk_LhnHIr_-13">
          <mxGeometry y="80" width="130" height="8" as="geometry" />
        </mxCell>
        <mxCell id="4OegJ4e9aNNk_LhnHIr_-16" value="+ calcIMC(): float&lt;div&gt;+ diagnostico(): String&lt;br&gt;&lt;/div&gt;" style="text;strokeColor=none;fillColor=none;align=left;verticalAlign=top;spacingLeft=4;spacingRight=4;overflow=hidden;rotatable=0;points=[[0,0.5],[1,0.5]];portConstraint=eastwest;whiteSpace=wrap;html=1;" vertex="1" parent="4OegJ4e9aNNk_LhnHIr_-13">
          <mxGeometry y="88" width="130" height="42" as="geometry" />
        </mxCell>
      </root>
    </mxGraphModel>
  </diagram>
</mxfile>
